<svg width="172" height="172" viewBox="0 0 172 172" fill="none" xmlns="http://www.w3.org/2000/svg">
<circle cx="86" cy="86" r="80.5" fill="#031F47"/>
<circle cx="86" cy="86" r="80.5" fill="url(#paint0_linear_101_1558)"/>
<circle cx="86" cy="86" r="80.5" stroke="url(#paint1_linear_101_1558)"/>
<g opacity="0.3" filter="url(#filter0_f_101_1558)">
<circle cx="86" cy="86" r="81" fill="url(#paint2_linear_101_1558)"/>
<circle cx="86" cy="86" r="81.5" stroke="url(#paint3_linear_101_1558)"/>
</g>
<g opacity="0.9" filter="url(#filter1_f_101_1558)">
<circle cx="84" cy="83" r="72" fill="#031F47"/>
<circle cx="84" cy="83" r="72" fill="url(#paint4_linear_101_1558)"/>
</g>
<g filter="url(#filter2_d_101_1558)">
<mask id="path-5-outside-1_101_1558" maskUnits="userSpaceOnUse" x="35" y="38" width="104" height="102" fill="black">
<rect fill="white" x="35" y="38" width="104" height="102"/>
<path fill-rule="evenodd" clip-rule="evenodd" d="M36 65.381C36 60.3068 37.0674 55.7745 39.2021 51.7841C41.3833 47.7444 44.3301 44.6161 48.0427 42.3992C51.8017 40.1331 56.0016 39 60.6423 39C66.072 39 70.8287 40.4779 74.9126 43.4338C77.0041 44.9476 78.7731 46.7586 80.2195 48.8669C82.3526 51.976 79.6475 55.7006 75.877 55.7006C73.6795 55.7006 71.7831 54.3286 70.3865 52.632C69.5656 51.6349 68.6147 50.8103 67.5338 50.1584C65.5383 48.9268 63.2179 48.311 60.5727 48.311C57.7419 48.311 55.2127 49.0253 52.9851 50.4539C50.804 51.8333 49.0869 53.8039 47.8339 56.3657C46.6273 58.9274 46.024 61.9325 46.024 65.381C46.024 68.7803 46.6273 71.7854 47.8339 74.3964C49.0869 76.9581 50.804 78.9534 52.9851 80.382C55.2127 81.7614 57.7419 82.4511 60.5727 82.4511C63.2179 82.4511 65.5383 81.8353 67.5338 80.6037C68.6166 79.9245 69.5689 79.079 70.3907 78.0673C71.7789 76.3584 73.6821 74.9876 75.8838 74.9876C79.2755 74.9876 81.811 77.9966 80.7475 80.8727V100.29C77.4003 100.29 74.6869 97.5769 74.6869 94.2297V87.4887C70.6982 90.2884 66.0167 91.6882 60.6423 91.6882C56.0016 91.6882 51.8017 90.5797 48.0427 88.3628C44.3301 86.0967 41.3833 82.9684 39.2021 78.978C37.0674 74.9876 36 70.4553 36 65.381ZM127.832 62.6559C129.548 62.6559 130.939 64.0472 130.939 65.7634C130.939 67.4797 129.548 68.871 127.832 68.871H91.101V102.37C91.101 104.714 89.2016 106.613 86.8586 106.613C84.5156 106.613 82.6162 104.714 82.6162 102.37V68.871H71.4207C69.7044 68.871 68.3131 67.4797 68.3131 65.7634C68.3131 64.0472 69.7044 62.6559 71.4207 62.6559H127.832ZM138 112.619C138 117.693 136.933 122.226 134.798 126.216C132.617 130.256 129.67 133.384 125.957 135.601C122.198 137.867 117.998 139 113.358 139C107.928 139 103.171 137.522 99.0874 134.566C96.9959 133.052 95.2269 131.241 93.7805 129.133C91.6474 126.024 94.3525 122.299 98.123 122.299C100.321 122.299 102.217 123.671 103.614 125.368C104.434 126.365 105.385 127.19 106.466 127.842C108.462 129.073 110.782 129.689 113.427 129.689C116.258 129.689 118.787 128.975 121.015 127.546C123.196 126.167 124.913 124.196 126.166 121.634C127.373 119.073 127.976 116.067 127.976 112.619C127.976 109.22 127.373 106.215 126.166 103.604C124.913 101.042 123.196 99.0466 121.015 97.618C118.787 96.2386 116.258 95.5489 113.427 95.5489C110.782 95.5489 108.462 96.1647 106.466 97.3963C105.383 98.0755 104.431 98.921 103.609 99.9327C102.221 101.642 100.318 103.012 98.1162 103.012C94.7246 103.012 92.189 100.003 93.2525 97.1273L93.2525 77.7097C97.1576 77.7097 100.323 80.8754 100.323 84.7804V89.8415C104.086 87.4884 108.431 86.3118 113.358 86.3118C117.998 86.3118 122.198 87.4203 125.957 89.6372C129.67 91.9033 132.617 95.0316 134.798 99.022C136.933 103.012 138 107.545 138 112.619ZM119.035 70.1827H93.2525V75.1827H119.035C120.416 75.1827 121.535 74.0634 121.535 72.6827C121.535 71.302 120.416 70.1827 119.035 70.1827Z"/>
</mask>
<path fill-rule="evenodd" clip-rule="evenodd" d="M36 65.381C36 60.3068 37.0674 55.7745 39.2021 51.7841C41.3833 47.7444 44.3301 44.6161 48.0427 42.3992C51.8017 40.1331 56.0016 39 60.6423 39C66.072 39 70.8287 40.4779 74.9126 43.4338C77.0041 44.9476 78.7731 46.7586 80.2195 48.8669C82.3526 51.976 79.6475 55.7006 75.877 55.7006C73.6795 55.7006 71.7831 54.3286 70.3865 52.632C69.5656 51.6349 68.6147 50.8103 67.5338 50.1584C65.5383 48.9268 63.2179 48.311 60.5727 48.311C57.7419 48.311 55.2127 49.0253 52.9851 50.4539C50.804 51.8333 49.0869 53.8039 47.8339 56.3657C46.6273 58.9274 46.024 61.9325 46.024 65.381C46.024 68.7803 46.6273 71.7854 47.8339 74.3964C49.0869 76.9581 50.804 78.9534 52.9851 80.382C55.2127 81.7614 57.7419 82.4511 60.5727 82.4511C63.2179 82.4511 65.5383 81.8353 67.5338 80.6037C68.6166 79.9245 69.5689 79.079 70.3907 78.0673C71.7789 76.3584 73.6821 74.9876 75.8838 74.9876C79.2755 74.9876 81.811 77.9966 80.7475 80.8727V100.29C77.4003 100.29 74.6869 97.5769 74.6869 94.2297V87.4887C70.6982 90.2884 66.0167 91.6882 60.6423 91.6882C56.0016 91.6882 51.8017 90.5797 48.0427 88.3628C44.3301 86.0967 41.3833 82.9684 39.2021 78.978C37.0674 74.9876 36 70.4553 36 65.381ZM127.832 62.6559C129.548 62.6559 130.939 64.0472 130.939 65.7634C130.939 67.4797 129.548 68.871 127.832 68.871H91.101V102.37C91.101 104.714 89.2016 106.613 86.8586 106.613C84.5156 106.613 82.6162 104.714 82.6162 102.37V68.871H71.4207C69.7044 68.871 68.3131 67.4797 68.3131 65.7634C68.3131 64.0472 69.7044 62.6559 71.4207 62.6559H127.832ZM138 112.619C138 117.693 136.933 122.226 134.798 126.216C132.617 130.256 129.67 133.384 125.957 135.601C122.198 137.867 117.998 139 113.358 139C107.928 139 103.171 137.522 99.0874 134.566C96.9959 133.052 95.2269 131.241 93.7805 129.133C91.6474 126.024 94.3525 122.299 98.123 122.299C100.321 122.299 102.217 123.671 103.614 125.368C104.434 126.365 105.385 127.19 106.466 127.842C108.462 129.073 110.782 129.689 113.427 129.689C116.258 129.689 118.787 128.975 121.015 127.546C123.196 126.167 124.913 124.196 126.166 121.634C127.373 119.073 127.976 116.067 127.976 112.619C127.976 109.22 127.373 106.215 126.166 103.604C124.913 101.042 123.196 99.0466 121.015 97.618C118.787 96.2386 116.258 95.5489 113.427 95.5489C110.782 95.5489 108.462 96.1647 106.466 97.3963C105.383 98.0755 104.431 98.921 103.609 99.9327C102.221 101.642 100.318 103.012 98.1162 103.012C94.7246 103.012 92.189 100.003 93.2525 97.1273L93.2525 77.7097C97.1576 77.7097 100.323 80.8754 100.323 84.7804V89.8415C104.086 87.4884 108.431 86.3118 113.358 86.3118C117.998 86.3118 122.198 87.4203 125.957 89.6372C129.67 91.9033 132.617 95.0316 134.798 99.022C136.933 103.012 138 107.545 138 112.619ZM119.035 70.1827H93.2525V75.1827H119.035C120.416 75.1827 121.535 74.0634 121.535 72.6827C121.535 71.302 120.416 70.1827 119.035 70.1827Z" fill="url(#paint5_linear_101_1558)" shape-rendering="crispEdges"/>
<path d="M39.2021 51.7841L39.0261 51.6891L39.0258 51.6897L39.2021 51.7841ZM48.0427 42.3992L48.1453 42.571L48.146 42.5705L48.0427 42.3992ZM74.9126 43.4338L75.0299 43.2718L74.9126 43.4338ZM80.2195 48.8669L80.3844 48.7537L80.2195 48.8669ZM70.3865 52.632L70.2321 52.7591L70.3865 52.632ZM67.5338 50.1584L67.4288 50.3286L67.4305 50.3296L67.5338 50.1584ZM52.9851 50.4539L53.092 50.623L53.0931 50.6223L52.9851 50.4539ZM47.8339 56.3657L47.6542 56.2778L47.6529 56.2804L47.8339 56.3657ZM47.8339 74.3964L47.6523 74.4803L47.6542 74.4843L47.8339 74.3964ZM52.9851 80.382L52.8755 80.5494L52.8798 80.5521L52.9851 80.382ZM67.5338 80.6037L67.6389 80.7739L67.6401 80.7731L67.5338 80.6037ZM70.3907 78.0673L70.2355 77.9412L70.3907 78.0673ZM80.7475 80.8727L80.5599 80.8033L80.5475 80.8369V80.8727H80.7475ZM80.7475 100.29V100.49H80.9475V100.29H80.7475ZM74.6869 87.4887H74.8869V87.104L74.572 87.325L74.6869 87.4887ZM48.0427 88.3628L47.9385 88.5336L47.9411 88.5351L48.0427 88.3628ZM39.2021 78.978L39.0258 79.0723L39.0266 79.0739L39.2021 78.978ZM91.101 68.871V68.671H90.901V68.871H91.101ZM82.6162 68.871H82.8162V68.671H82.6162V68.871ZM134.798 126.216L134.974 126.311L134.974 126.31L134.798 126.216ZM125.957 135.601L125.855 135.429L125.854 135.429L125.957 135.601ZM99.0874 134.566L99.2047 134.404L99.0874 134.566ZM93.7805 129.133L93.9455 129.02L93.7805 129.133ZM98.123 122.299V122.499V122.299ZM103.614 125.368L103.768 125.241L103.614 125.368ZM106.466 127.842L106.571 127.671L106.569 127.67L106.466 127.842ZM121.015 127.546L120.908 127.377L120.907 127.378L121.015 127.546ZM126.166 121.634L126.346 121.722L126.347 121.72L126.166 121.634ZM126.166 103.604L126.348 103.52L126.346 103.516L126.166 103.604ZM121.015 97.618L121.125 97.4506L121.12 97.4479L121.015 97.618ZM113.427 95.5489V95.7489V95.5489ZM106.466 97.3963L106.361 97.2261L106.36 97.2269L106.466 97.3963ZM103.609 99.9327L103.765 100.059L103.609 99.9327ZM93.2525 97.1273L93.4401 97.1967L93.4525 97.1631V97.1273H93.2525ZM93.2525 77.7097V77.5097H93.0525V77.7097H93.2525ZM100.323 84.7804H100.123H100.323ZM100.323 89.8415H100.123V90.2024L100.429 90.011L100.323 89.8415ZM125.957 89.6372L126.062 89.4664L126.059 89.4649L125.957 89.6372ZM134.798 99.022L134.974 98.9277L134.973 98.9261L134.798 99.022ZM93.2525 70.1827V69.9827H93.0525V70.1827H93.2525ZM93.2525 75.1827H93.0525V75.3827H93.2525V75.1827ZM39.0258 51.6897C36.8737 55.7125 35.8 60.2779 35.8 65.381H36.2C36.2 60.3357 37.2611 55.8364 39.3785 51.8784L39.0258 51.6897ZM47.9402 42.2275C44.1947 44.464 41.2233 47.6197 39.0261 51.6891L39.3781 51.8791C41.5432 47.8691 44.4655 44.7682 48.1453 42.571L47.9402 42.2275ZM60.6423 38.8C55.9674 38.8 51.7314 39.9419 47.9395 42.228L48.146 42.5705C51.872 40.3242 56.0358 39.2 60.6423 39.2V38.8ZM75.0299 43.2718C70.9092 40.2893 66.1107 38.8 60.6423 38.8V39.2C66.0333 39.2 70.7483 40.6666 74.7953 43.5958L75.0299 43.2718ZM80.3844 48.7537C78.9249 46.6264 77.1398 44.7989 75.0299 43.2718L74.7953 43.5958C76.8685 45.0963 78.6212 46.8909 80.0545 48.98L80.3844 48.7537ZM75.877 55.9006C77.8279 55.9006 79.5098 54.937 80.4284 53.5607C81.3507 52.179 81.5012 50.3815 80.3844 48.7537L80.0545 48.98C81.0708 50.4614 80.9354 52.0808 80.0957 53.3386C79.2525 54.6019 77.6966 55.5006 75.877 55.5006V55.9006ZM70.2321 52.7591C71.646 54.4766 73.5933 55.9006 75.877 55.9006V55.5006C73.7656 55.5006 71.9203 54.1805 70.5409 52.5049L70.2321 52.7591ZM67.4305 50.3296C68.4916 50.9696 69.4253 51.7791 70.2321 52.7591L70.5409 52.5049C69.706 51.4907 68.7379 50.6511 67.6371 49.9871L67.4305 50.3296ZM60.5727 48.511C63.1857 48.511 65.4687 49.1188 67.4288 50.3286L67.6389 49.9882C65.6079 48.7347 63.2502 48.111 60.5727 48.111V48.511ZM53.0931 50.6223C55.2861 49.2158 57.7773 48.511 60.5727 48.511V48.111C57.7064 48.111 55.1392 48.8348 52.8771 50.2856L53.0931 50.6223ZM48.0135 56.4535C49.252 53.9215 50.9454 51.9805 53.092 50.623L52.8782 50.2849C50.6625 51.6862 48.9217 53.6864 47.6542 56.2778L48.0135 56.4535ZM46.224 65.381C46.224 61.9557 46.8232 58.9808 48.0148 56.4509L47.6529 56.2804C46.4314 58.874 45.824 61.9094 45.824 65.381H46.224ZM48.0154 74.3125C46.823 71.7321 46.224 68.7565 46.224 65.381H45.824C45.824 68.804 46.4316 71.8386 47.6523 74.4803L48.0154 74.3125ZM53.0947 80.2147C50.9464 78.8076 49.2523 76.8411 48.0135 74.3085L47.6542 74.4843C48.9215 77.0752 50.6615 79.0991 52.8755 80.5493L53.0947 80.2147ZM60.5727 82.2511C57.7759 82.2511 55.2838 81.5702 53.0904 80.212L52.8798 80.5521C55.1415 81.9526 57.7078 82.6511 60.5727 82.6511V82.2511ZM67.4288 80.4335C65.4687 81.6432 63.1857 82.2511 60.5727 82.2511V82.6511C63.2502 82.6511 65.6079 82.0274 67.6389 80.7739L67.4288 80.4335ZM70.2355 77.9412C69.4272 78.9362 68.4914 79.7669 67.4275 80.4343L67.6401 80.7731C68.7419 80.082 69.7106 79.2218 70.546 78.1934L70.2355 77.9412ZM75.8838 74.7876C73.5961 74.7876 71.6416 76.2101 70.2355 77.9412L70.546 78.1934C71.9161 76.5067 73.7682 75.1876 75.8838 75.1876V74.7876ZM80.9351 80.9421C81.495 79.4277 81.104 77.8824 80.1401 76.7237C79.1771 75.5662 77.6389 74.7876 75.8838 74.7876V75.1876C77.5203 75.1876 78.9457 75.9135 79.8326 76.9795C80.7184 78.0443 81.0634 79.4416 80.5599 80.8033L80.9351 80.9421ZM80.9475 100.29V80.8727H80.5475V100.29H80.9475ZM74.4869 94.2297C74.4869 97.6873 77.2898 100.49 80.7475 100.49V100.09C77.5108 100.09 74.8869 97.4664 74.8869 94.2297H74.4869ZM74.4869 87.4887V94.2297H74.8869V87.4887H74.4869ZM60.6423 91.8882C66.0534 91.8882 70.776 90.4781 74.8018 87.6524L74.572 87.325C70.6204 90.0986 65.98 91.4882 60.6423 91.4882V91.8882ZM47.9411 88.5351C51.7329 90.7713 55.9682 91.8882 60.6423 91.8882V91.4882C56.035 91.4882 51.8706 90.3881 48.1443 88.1906L47.9411 88.5351ZM39.0266 79.0739C41.2238 83.0936 44.1946 86.2483 47.9385 88.5335L48.1469 88.1921C44.4656 85.9451 41.5427 82.8432 39.3776 78.8821L39.0266 79.0739ZM35.8 65.381C35.8 70.4841 36.8737 75.0495 39.0258 79.0723L39.3785 78.8836C37.2611 74.9256 36.2 70.4264 36.2 65.381H35.8ZM131.139 65.7634C131.139 63.9367 129.659 62.4559 127.832 62.4559V62.8559C129.438 62.8559 130.739 64.1577 130.739 65.7634H131.139ZM127.832 69.071C129.659 69.071 131.139 67.5901 131.139 65.7634H130.739C130.739 67.3692 129.438 68.671 127.832 68.671V69.071ZM91.101 69.071H127.832V68.671H91.101V69.071ZM91.301 102.37V68.871H90.901V102.37H91.301ZM86.8586 106.813C89.3121 106.813 91.301 104.824 91.301 102.37H90.901C90.901 104.603 89.0912 106.413 86.8586 106.413V106.813ZM82.4162 102.37C82.4162 104.824 84.4051 106.813 86.8586 106.813V106.413C84.626 106.413 82.8162 104.603 82.8162 102.37H82.4162ZM82.4162 68.871V102.37H82.8162V68.871H82.4162ZM71.4207 69.071H82.6162V68.671H71.4207V69.071ZM68.1131 65.7634C68.1131 67.5901 69.594 69.071 71.4207 69.071V68.671C69.8149 68.671 68.5131 67.3692 68.5131 65.7634H68.1131ZM71.4207 62.4559C69.594 62.4559 68.1131 63.9367 68.1131 65.7634H68.5131C68.5131 64.1577 69.8149 62.8559 71.4207 62.8559V62.4559ZM127.832 62.4559H71.4207V62.8559H127.832V62.4559ZM134.974 126.31C137.126 122.287 138.2 117.722 138.2 112.619H137.8C137.8 117.664 136.739 122.164 134.622 126.122L134.974 126.31ZM126.06 135.772C129.805 133.536 132.777 130.38 134.974 126.311L134.622 126.121C132.457 130.131 129.534 133.232 125.855 135.429L126.06 135.772ZM113.358 139.2C118.033 139.2 122.269 138.058 126.061 135.772L125.854 135.429C122.128 137.676 117.964 138.8 113.358 138.8V139.2ZM98.9701 134.728C103.091 137.711 107.889 139.2 113.358 139.2V138.8C107.967 138.8 103.252 137.333 99.2047 134.404L98.9701 134.728ZM93.6156 129.246C95.0751 131.374 96.8602 133.201 98.9701 134.728L99.2047 134.404C97.1315 132.904 95.3788 131.109 93.9455 129.02L93.6156 129.246ZM98.123 122.099C96.1721 122.099 94.4902 123.063 93.5716 124.439C92.6493 125.821 92.4988 127.618 93.6156 129.246L93.9455 129.02C92.9292 127.539 93.0647 125.919 93.9043 124.661C94.7475 123.398 96.3034 122.499 98.123 122.499V122.099ZM103.768 125.241C102.354 123.523 100.407 122.099 98.123 122.099V122.499C100.234 122.499 102.08 123.819 103.459 125.495L103.768 125.241ZM106.569 127.67C105.508 127.03 104.575 126.221 103.768 125.241L103.459 125.495C104.294 126.509 105.262 127.349 106.363 128.013L106.569 127.67ZM113.427 129.489C110.814 129.489 108.531 128.881 106.571 127.671L106.361 128.012C108.392 129.265 110.75 129.889 113.427 129.889V129.489ZM120.907 127.378C118.714 128.784 116.223 129.489 113.427 129.489V129.889C116.294 129.889 118.861 129.165 121.123 127.714L120.907 127.378ZM125.986 121.546C124.748 124.079 123.055 126.019 120.908 127.377L121.122 127.715C123.337 126.314 125.078 124.314 126.346 121.722L125.986 121.546ZM127.776 112.619C127.776 116.044 127.177 119.019 125.985 121.549L126.347 121.72C127.569 119.126 128.176 116.091 128.176 112.619H127.776ZM125.985 103.688C127.177 106.268 127.776 109.243 127.776 112.619H128.176C128.176 109.196 127.568 106.161 126.348 103.52L125.985 103.688ZM120.905 97.7853C123.054 99.1924 124.748 101.159 125.986 103.691L126.346 103.516C125.079 100.925 123.338 98.9009 121.124 97.4507L120.905 97.7853ZM113.427 95.7489C116.224 95.7489 118.716 96.4298 120.91 97.788L121.12 97.4479C118.858 96.0474 116.292 95.3489 113.427 95.3489V95.7489ZM106.571 97.5665C108.531 96.3568 110.814 95.7489 113.427 95.7489V95.3489C110.75 95.3489 108.392 95.9726 106.361 97.2261L106.571 97.5665ZM103.765 100.059C104.573 99.0638 105.509 98.2331 106.572 97.5657L106.36 97.2269C105.258 97.918 104.289 98.7782 103.454 99.8066L103.765 100.059ZM98.1162 103.212C100.404 103.212 102.358 101.79 103.765 100.059L103.454 99.8066C102.084 101.493 100.232 102.812 98.1162 102.812V103.212ZM93.0649 97.0579C92.505 98.5723 92.896 100.118 93.8599 101.276C94.8229 102.434 96.3611 103.212 98.1162 103.212V102.812C96.4797 102.812 95.0543 102.087 94.1674 101.02C93.2816 99.9557 92.9366 98.5584 93.4401 97.1967L93.0649 97.0579ZM93.0525 77.7097L93.0525 97.1273H93.4525L93.4525 77.7097H93.0525ZM100.523 84.7804C100.523 80.7649 97.268 77.5097 93.2525 77.5097V77.9097C97.0471 77.9097 100.123 80.9858 100.123 84.7804H100.523ZM100.523 89.8415V84.7804H100.123V89.8415H100.523ZM113.358 86.1118C108.397 86.1118 104.015 87.2968 100.217 89.6719L100.429 90.011C104.157 87.68 108.464 86.5118 113.358 86.5118V86.1118ZM126.059 89.4649C122.267 87.2287 118.032 86.1118 113.358 86.1118V86.5118C117.965 86.5118 122.129 87.6119 125.856 89.8094L126.059 89.4649ZM134.973 98.9261C132.776 94.9064 129.805 91.7517 126.061 89.4665L125.853 89.8079C129.534 92.0549 132.457 95.1568 134.622 99.1179L134.973 98.9261ZM138.2 112.619C138.2 107.516 137.126 102.95 134.974 98.9277L134.622 99.1164C136.739 103.074 137.8 107.574 137.8 112.619H138.2ZM93.2525 70.3827H119.035V69.9827H93.2525V70.3827ZM93.4525 75.1827V70.1827H93.0525V75.1827H93.4525ZM119.035 74.9827H93.2525V75.3827H119.035V74.9827ZM121.335 72.6827C121.335 73.953 120.306 74.9827 119.035 74.9827V75.3827C120.527 75.3827 121.735 74.1739 121.735 72.6827H121.335ZM119.035 70.3827C120.306 70.3827 121.335 71.4125 121.335 72.6827H121.735C121.735 71.1916 120.527 69.9827 119.035 69.9827V70.3827Z" fill="#031F47" mask="url(#path-5-outside-1_101_1558)"/>
<path d="M39.2021 51.7841L39.0261 51.6891L39.0258 51.6897L39.2021 51.7841ZM48.0427 42.3992L48.1453 42.571L48.146 42.5705L48.0427 42.3992ZM74.9126 43.4338L75.0299 43.2718L74.9126 43.4338ZM80.2195 48.8669L80.3844 48.7537L80.2195 48.8669ZM70.3865 52.632L70.2321 52.7591L70.3865 52.632ZM67.5338 50.1584L67.4288 50.3286L67.4305 50.3296L67.5338 50.1584ZM52.9851 50.4539L53.092 50.623L53.0931 50.6223L52.9851 50.4539ZM47.8339 56.3657L47.6542 56.2778L47.6529 56.2804L47.8339 56.3657ZM47.8339 74.3964L47.6523 74.4803L47.6542 74.4843L47.8339 74.3964ZM52.9851 80.382L52.8755 80.5494L52.8798 80.5521L52.9851 80.382ZM67.5338 80.6037L67.6389 80.7739L67.6401 80.7731L67.5338 80.6037ZM70.3907 78.0673L70.2355 77.9412L70.3907 78.0673ZM80.7475 80.8727L80.5599 80.8033L80.5475 80.8369V80.8727H80.7475ZM80.7475 100.29V100.49H80.9475V100.29H80.7475ZM74.6869 87.4887H74.8869V87.104L74.572 87.325L74.6869 87.4887ZM48.0427 88.3628L47.9385 88.5336L47.9411 88.5351L48.0427 88.3628ZM39.2021 78.978L39.0258 79.0723L39.0266 79.0739L39.2021 78.978ZM91.101 68.871V68.671H90.901V68.871H91.101ZM82.6162 68.871H82.8162V68.671H82.6162V68.871ZM134.798 126.216L134.974 126.311L134.974 126.31L134.798 126.216ZM125.957 135.601L125.855 135.429L125.854 135.429L125.957 135.601ZM99.0874 134.566L99.2047 134.404L99.0874 134.566ZM93.7805 129.133L93.9455 129.02L93.7805 129.133ZM98.123 122.299V122.499V122.299ZM103.614 125.368L103.768 125.241L103.614 125.368ZM106.466 127.842L106.571 127.671L106.569 127.67L106.466 127.842ZM121.015 127.546L120.908 127.377L120.907 127.378L121.015 127.546ZM126.166 121.634L126.346 121.722L126.347 121.72L126.166 121.634ZM126.166 103.604L126.348 103.52L126.346 103.516L126.166 103.604ZM121.015 97.618L121.125 97.4506L121.12 97.4479L121.015 97.618ZM113.427 95.5489V95.7489V95.5489ZM106.466 97.3963L106.361 97.2261L106.36 97.2269L106.466 97.3963ZM103.609 99.9327L103.765 100.059L103.609 99.9327ZM93.2525 97.1273L93.4401 97.1967L93.4525 97.1631V97.1273H93.2525ZM93.2525 77.7097V77.5097H93.0525V77.7097H93.2525ZM100.323 84.7804H100.123H100.323ZM100.323 89.8415H100.123V90.2024L100.429 90.011L100.323 89.8415ZM125.957 89.6372L126.062 89.4664L126.059 89.4649L125.957 89.6372ZM134.798 99.022L134.974 98.9277L134.973 98.9261L134.798 99.022ZM93.2525 70.1827V69.9827H93.0525V70.1827H93.2525ZM93.2525 75.1827H93.0525V75.3827H93.2525V75.1827ZM39.0258 51.6897C36.8737 55.7125 35.8 60.2779 35.8 65.381H36.2C36.2 60.3357 37.2611 55.8364 39.3785 51.8784L39.0258 51.6897ZM47.9402 42.2275C44.1947 44.464 41.2233 47.6197 39.0261 51.6891L39.3781 51.8791C41.5432 47.8691 44.4655 44.7682 48.1453 42.571L47.9402 42.2275ZM60.6423 38.8C55.9674 38.8 51.7314 39.9419 47.9395 42.228L48.146 42.5705C51.872 40.3242 56.0358 39.2 60.6423 39.2V38.8ZM75.0299 43.2718C70.9092 40.2893 66.1107 38.8 60.6423 38.8V39.2C66.0333 39.2 70.7483 40.6666 74.7953 43.5958L75.0299 43.2718ZM80.3844 48.7537C78.9249 46.6264 77.1398 44.7989 75.0299 43.2718L74.7953 43.5958C76.8685 45.0963 78.6212 46.8909 80.0545 48.98L80.3844 48.7537ZM75.877 55.9006C77.8279 55.9006 79.5098 54.937 80.4284 53.5607C81.3507 52.179 81.5012 50.3815 80.3844 48.7537L80.0545 48.98C81.0708 50.4614 80.9354 52.0808 80.0957 53.3386C79.2525 54.6019 77.6966 55.5006 75.877 55.5006V55.9006ZM70.2321 52.7591C71.646 54.4766 73.5933 55.9006 75.877 55.9006V55.5006C73.7656 55.5006 71.9203 54.1805 70.5409 52.5049L70.2321 52.7591ZM67.4305 50.3296C68.4916 50.9696 69.4253 51.7791 70.2321 52.7591L70.5409 52.5049C69.706 51.4907 68.7379 50.6511 67.6371 49.9871L67.4305 50.3296ZM60.5727 48.511C63.1857 48.511 65.4687 49.1188 67.4288 50.3286L67.6389 49.9882C65.6079 48.7347 63.2502 48.111 60.5727 48.111V48.511ZM53.0931 50.6223C55.2861 49.2158 57.7773 48.511 60.5727 48.511V48.111C57.7064 48.111 55.1392 48.8348 52.8771 50.2856L53.0931 50.6223ZM48.0135 56.4535C49.252 53.9215 50.9454 51.9805 53.092 50.623L52.8782 50.2849C50.6625 51.6862 48.9217 53.6864 47.6542 56.2778L48.0135 56.4535ZM46.224 65.381C46.224 61.9557 46.8232 58.9808 48.0148 56.4509L47.6529 56.2804C46.4314 58.874 45.824 61.9094 45.824 65.381H46.224ZM48.0154 74.3125C46.823 71.7321 46.224 68.7565 46.224 65.381H45.824C45.824 68.804 46.4316 71.8386 47.6523 74.4803L48.0154 74.3125ZM53.0947 80.2147C50.9464 78.8076 49.2523 76.8411 48.0135 74.3085L47.6542 74.4843C48.9215 77.0752 50.6615 79.0991 52.8755 80.5493L53.0947 80.2147ZM60.5727 82.2511C57.7759 82.2511 55.2838 81.5702 53.0904 80.212L52.8798 80.5521C55.1415 81.9526 57.7078 82.6511 60.5727 82.6511V82.2511ZM67.4288 80.4335C65.4687 81.6432 63.1857 82.2511 60.5727 82.2511V82.6511C63.2502 82.6511 65.6079 82.0274 67.6389 80.7739L67.4288 80.4335ZM70.2355 77.9412C69.4272 78.9362 68.4914 79.7669 67.4275 80.4343L67.6401 80.7731C68.7419 80.082 69.7106 79.2218 70.546 78.1934L70.2355 77.9412ZM75.8838 74.7876C73.5961 74.7876 71.6416 76.2101 70.2355 77.9412L70.546 78.1934C71.9161 76.5067 73.7682 75.1876 75.8838 75.1876V74.7876ZM80.9351 80.9421C81.495 79.4277 81.104 77.8824 80.1401 76.7237C79.1771 75.5662 77.6389 74.7876 75.8838 74.7876V75.1876C77.5203 75.1876 78.9457 75.9135 79.8326 76.9795C80.7184 78.0443 81.0634 79.4416 80.5599 80.8033L80.9351 80.9421ZM80.9475 100.29V80.8727H80.5475V100.29H80.9475ZM74.4869 94.2297C74.4869 97.6873 77.2898 100.49 80.7475 100.49V100.09C77.5108 100.09 74.8869 97.4664 74.8869 94.2297H74.4869ZM74.4869 87.4887V94.2297H74.8869V87.4887H74.4869ZM60.6423 91.8882C66.0534 91.8882 70.776 90.4781 74.8018 87.6524L74.572 87.325C70.6204 90.0986 65.98 91.4882 60.6423 91.4882V91.8882ZM47.9411 88.5351C51.7329 90.7713 55.9682 91.8882 60.6423 91.8882V91.4882C56.035 91.4882 51.8706 90.3881 48.1443 88.1906L47.9411 88.5351ZM39.0266 79.0739C41.2238 83.0936 44.1946 86.2483 47.9385 88.5335L48.1469 88.1921C44.4656 85.9451 41.5427 82.8432 39.3776 78.8821L39.0266 79.0739ZM35.8 65.381C35.8 70.4841 36.8737 75.0495 39.0258 79.0723L39.3785 78.8836C37.2611 74.9256 36.2 70.4264 36.2 65.381H35.8ZM131.139 65.7634C131.139 63.9367 129.659 62.4559 127.832 62.4559V62.8559C129.438 62.8559 130.739 64.1577 130.739 65.7634H131.139ZM127.832 69.071C129.659 69.071 131.139 67.5901 131.139 65.7634H130.739C130.739 67.3692 129.438 68.671 127.832 68.671V69.071ZM91.101 69.071H127.832V68.671H91.101V69.071ZM91.301 102.37V68.871H90.901V102.37H91.301ZM86.8586 106.813C89.3121 106.813 91.301 104.824 91.301 102.37H90.901C90.901 104.603 89.0912 106.413 86.8586 106.413V106.813ZM82.4162 102.37C82.4162 104.824 84.4051 106.813 86.8586 106.813V106.413C84.626 106.413 82.8162 104.603 82.8162 102.37H82.4162ZM82.4162 68.871V102.37H82.8162V68.871H82.4162ZM71.4207 69.071H82.6162V68.671H71.4207V69.071ZM68.1131 65.7634C68.1131 67.5901 69.594 69.071 71.4207 69.071V68.671C69.8149 68.671 68.5131 67.3692 68.5131 65.7634H68.1131ZM71.4207 62.4559C69.594 62.4559 68.1131 63.9367 68.1131 65.7634H68.5131C68.5131 64.1577 69.8149 62.8559 71.4207 62.8559V62.4559ZM127.832 62.4559H71.4207V62.8559H127.832V62.4559ZM134.974 126.31C137.126 122.287 138.2 117.722 138.2 112.619H137.8C137.8 117.664 136.739 122.164 134.622 126.122L134.974 126.31ZM126.06 135.772C129.805 133.536 132.777 130.38 134.974 126.311L134.622 126.121C132.457 130.131 129.534 133.232 125.855 135.429L126.06 135.772ZM113.358 139.2C118.033 139.2 122.269 138.058 126.061 135.772L125.854 135.429C122.128 137.676 117.964 138.8 113.358 138.8V139.2ZM98.9701 134.728C103.091 137.711 107.889 139.2 113.358 139.2V138.8C107.967 138.8 103.252 137.333 99.2047 134.404L98.9701 134.728ZM93.6156 129.246C95.0751 131.374 96.8602 133.201 98.9701 134.728L99.2047 134.404C97.1315 132.904 95.3788 131.109 93.9455 129.02L93.6156 129.246ZM98.123 122.099C96.1721 122.099 94.4902 123.063 93.5716 124.439C92.6493 125.821 92.4988 127.618 93.6156 129.246L93.9455 129.02C92.9292 127.539 93.0647 125.919 93.9043 124.661C94.7475 123.398 96.3034 122.499 98.123 122.499V122.099ZM103.768 125.241C102.354 123.523 100.407 122.099 98.123 122.099V122.499C100.234 122.499 102.08 123.819 103.459 125.495L103.768 125.241ZM106.569 127.67C105.508 127.03 104.575 126.221 103.768 125.241L103.459 125.495C104.294 126.509 105.262 127.349 106.363 128.013L106.569 127.67ZM113.427 129.489C110.814 129.489 108.531 128.881 106.571 127.671L106.361 128.012C108.392 129.265 110.75 129.889 113.427 129.889V129.489ZM120.907 127.378C118.714 128.784 116.223 129.489 113.427 129.489V129.889C116.294 129.889 118.861 129.165 121.123 127.714L120.907 127.378ZM125.986 121.546C124.748 124.079 123.055 126.019 120.908 127.377L121.122 127.715C123.337 126.314 125.078 124.314 126.346 121.722L125.986 121.546ZM127.776 112.619C127.776 116.044 127.177 119.019 125.985 121.549L126.347 121.72C127.569 119.126 128.176 116.091 128.176 112.619H127.776ZM125.985 103.688C127.177 106.268 127.776 109.243 127.776 112.619H128.176C128.176 109.196 127.568 106.161 126.348 103.52L125.985 103.688ZM120.905 97.7853C123.054 99.1924 124.748 101.159 125.986 103.691L126.346 103.516C125.079 100.925 123.338 98.9009 121.124 97.4507L120.905 97.7853ZM113.427 95.7489C116.224 95.7489 118.716 96.4298 120.91 97.788L121.12 97.4479C118.858 96.0474 116.292 95.3489 113.427 95.3489V95.7489ZM106.571 97.5665C108.531 96.3568 110.814 95.7489 113.427 95.7489V95.3489C110.75 95.3489 108.392 95.9726 106.361 97.2261L106.571 97.5665ZM103.765 100.059C104.573 99.0638 105.509 98.2331 106.572 97.5657L106.36 97.2269C105.258 97.918 104.289 98.7782 103.454 99.8066L103.765 100.059ZM98.1162 103.212C100.404 103.212 102.358 101.79 103.765 100.059L103.454 99.8066C102.084 101.493 100.232 102.812 98.1162 102.812V103.212ZM93.0649 97.0579C92.505 98.5723 92.896 100.118 93.8599 101.276C94.8229 102.434 96.3611 103.212 98.1162 103.212V102.812C96.4797 102.812 95.0543 102.087 94.1674 101.02C93.2816 99.9557 92.9366 98.5584 93.4401 97.1967L93.0649 97.0579ZM93.0525 77.7097L93.0525 97.1273H93.4525L93.4525 77.7097H93.0525ZM100.523 84.7804C100.523 80.7649 97.268 77.5097 93.2525 77.5097V77.9097C97.0471 77.9097 100.123 80.9858 100.123 84.7804H100.523ZM100.523 89.8415V84.7804H100.123V89.8415H100.523ZM113.358 86.1118C108.397 86.1118 104.015 87.2968 100.217 89.6719L100.429 90.011C104.157 87.68 108.464 86.5118 113.358 86.5118V86.1118ZM126.059 89.4649C122.267 87.2287 118.032 86.1118 113.358 86.1118V86.5118C117.965 86.5118 122.129 87.6119 125.856 89.8094L126.059 89.4649ZM134.973 98.9261C132.776 94.9064 129.805 91.7517 126.061 89.4665L125.853 89.8079C129.534 92.0549 132.457 95.1568 134.622 99.1179L134.973 98.9261ZM138.2 112.619C138.2 107.516 137.126 102.95 134.974 98.9277L134.622 99.1164C136.739 103.074 137.8 107.574 137.8 112.619H138.2ZM93.2525 70.3827H119.035V69.9827H93.2525V70.3827ZM93.4525 75.1827V70.1827H93.0525V75.1827H93.4525ZM119.035 74.9827H93.2525V75.3827H119.035V74.9827ZM121.335 72.6827C121.335 73.953 120.306 74.9827 119.035 74.9827V75.3827C120.527 75.3827 121.735 74.1739 121.735 72.6827H121.335ZM119.035 70.3827C120.306 70.3827 121.335 71.4125 121.335 72.6827H121.735C121.735 71.1916 120.527 69.9827 119.035 69.9827V70.3827Z" fill="url(#paint6_linear_101_1558)" mask="url(#path-5-outside-1_101_1558)"/>
</g>
<defs>
<filter id="filter0_f_101_1558" x="0" y="0" width="172" height="172" filterUnits="userSpaceOnUse" color-interpolation-filters="sRGB">
<feFlood flood-opacity="0" result="BackgroundImageFix"/>
<feBlend mode="normal" in="SourceGraphic" in2="BackgroundImageFix" result="shape"/>
<feGaussianBlur stdDeviation="2" result="effect1_foregroundBlur_101_1558"/>
</filter>
<filter id="filter1_f_101_1558" x="7" y="6" width="154" height="154" filterUnits="userSpaceOnUse" color-interpolation-filters="sRGB">
<feFlood flood-opacity="0" result="BackgroundImageFix"/>
<feBlend mode="normal" in="SourceGraphic" in2="BackgroundImageFix" result="shape"/>
<feGaussianBlur stdDeviation="2.5" result="effect1_foregroundBlur_101_1558"/>
</filter>
<filter id="filter2_d_101_1558" x="26.7998" y="29.8" width="120.4" height="118.4" filterUnits="userSpaceOnUse" color-interpolation-filters="sRGB">
<feFlood flood-opacity="0" result="BackgroundImageFix"/>
<feColorMatrix in="SourceAlpha" type="matrix" values="0 0 0 0 0 0 0 0 0 0 0 0 0 0 0 0 0 0 127 0" result="hardAlpha"/>
<feOffset/>
<feGaussianBlur stdDeviation="4.5"/>
<feComposite in2="hardAlpha" operator="out"/>
<feColorMatrix type="matrix" values="0 0 0 0 0.314722 0 0 0 0 0.459686 0 0 0 0 0.858333 0 0 0 1 0"/>
<feBlend mode="normal" in2="BackgroundImageFix" result="effect1_dropShadow_101_1558"/>
<feBlend mode="normal" in="SourceGraphic" in2="effect1_dropShadow_101_1558" result="shape"/>
</filter>
<linearGradient id="paint0_linear_101_1558" x1="5" y1="5" x2="167.404" y2="5.40601" gradientUnits="userSpaceOnUse">
<stop offset="0.24576" stop-color="#38A7F8"/>
<stop offset="1" stop-color="#5074F5"/>
</linearGradient>
<linearGradient id="paint1_linear_101_1558" x1="5" y1="5" x2="167.404" y2="5.40601" gradientUnits="userSpaceOnUse">
<stop offset="0.0879357" stop-color="#5092F5"/>
<stop offset="0.871285" stop-color="#DEE7FF"/>
</linearGradient>
<linearGradient id="paint2_linear_101_1558" x1="5" y1="5" x2="167" y2="167" gradientUnits="userSpaceOnUse">
<stop offset="0.130208" stop-color="white" stop-opacity="0"/>
<stop offset="1" stop-color="#F8FEFF"/>
</linearGradient>
<linearGradient id="paint3_linear_101_1558" x1="5" y1="5" x2="167.404" y2="5.40601" gradientUnits="userSpaceOnUse">
<stop offset="0.0879357" stop-color="#5092F5"/>
<stop offset="0.871285" stop-color="#DEE7FF"/>
</linearGradient>
<linearGradient id="paint4_linear_101_1558" x1="12" y1="11" x2="156.359" y2="11.3609" gradientUnits="userSpaceOnUse">
<stop offset="0.24576" stop-color="#38A7F8"/>
<stop offset="1" stop-color="#5074F5"/>
</linearGradient>
<linearGradient id="paint5_linear_101_1558" x1="37" y1="39" x2="142.831" y2="132.392" gradientUnits="userSpaceOnUse">
<stop stop-color="white" stop-opacity="0.94"/>
<stop offset="1" stop-color="white"/>
</linearGradient>
<linearGradient id="paint6_linear_101_1558" x1="36" y1="39" x2="138.254" y2="39.2607" gradientUnits="userSpaceOnUse">
<stop offset="0.24576" stop-color="#38A7F8"/>
<stop offset="1" stop-color="#5074F5"/>
</linearGradient>
</defs>
</svg>
